<svg xmlns="http://www.w3.org/2000/svg" xmlns:xlink="http://www.w3.org/1999/xlink" width="304" height="221" viewBox="0 0 304 221">
  <defs>
    <style>
      .cls-1 {
        fill: #d9e3e8;
      }

      .cls-2 {
        clip-path: url(#clip-Onderlinge_GRIJS);
      }

      .cls-3 {
        clip-path: url(#clip-path);
      }
    </style>
    <clipPath id="clip-path">
      <rect id="Rectangle_459" data-name="Rectangle 459" class="cls-1" width="304" height="220.499"/>
    </clipPath>
    <clipPath id="clip-Onderlinge_GRIJS">
      <rect width="304" height="221"/>
    </clipPath>
  </defs>
  <g id="Onderlinge_GRIJS" class="cls-2">
    <g id="Group_1029" data-name="Group 1029" transform="translate(0 -0.857)">
      <g id="Group_1028" data-name="Group 1028" class="cls-3">
        <path id="Path_1195" data-name="Path 1195" class="cls-1" d="M0,80.732a13.557,13.557,0,0,0,.389-1.57c.918-7.237,4.316-12.884,10.686-16.592a24.067,24.067,0,0,1,13.147-3.028,23.047,23.047,0,0,1,11.759,3.429,20.928,20.928,0,0,1,9.735,14.46,23.482,23.482,0,0,1-1.823,14.946A20.879,20.879,0,0,1,28.3,104.2a24.86,24.86,0,0,1-14.087-1.1c-7.68-3.028-12.142-8.73-13.64-16.805-.094-.506-.109-1.028-.21-1.533C.281,84.323.125,83.9,0,83.469V80.732M23.273,67.888c-.335,0-.67-.01-1,0a11.256,11.256,0,0,0-10.641,7.745A18.1,18.1,0,0,0,10.62,80.9a19.194,19.194,0,0,0,1.029,7.717,10.941,10.941,0,0,0,7.1,7.062,15.439,15.439,0,0,0,5.314.623A11.136,11.136,0,0,0,34.72,88.588a19.414,19.414,0,0,0,.071-12.8,10.919,10.919,0,0,0-6.1-6.884,12.283,12.283,0,0,0-5.416-1.021" transform="translate(0 -25.997)"/>
        <path id="Path_1196" data-name="Path 1196" class="cls-1" d="M69.783,0a4.792,4.792,0,0,1-.493.745A103.3,103.3,0,0,0,53.532,22.884c-.942,1.7-1.862,3.413-2.794,5.118-.144.263-.3.518-.445.76l-5.817-1.027c.127-.275.237-.548.373-.806A130.868,130.868,0,0,1,63.009.8a8.875,8.875,0,0,0,.57-.8Z" transform="translate(-19.424)"/>
        <path id="Path_1197" data-name="Path 1197" class="cls-1" d="M18.257,145.61c1.133.541,2.135,1.042,3.156,1.5,1.2.541,1.214.526,1.194,1.85s-.127,2.675-.08,4.008c.11,3.1.281,6.188.445,9.281a99.831,99.831,0,0,0,1.317,10.933,125.737,125.737,0,0,0,3.628,15.6A128.052,128.052,0,0,0,36.837,210.9,126.988,126.988,0,0,0,87.62,263.473a127.106,127.106,0,0,0,47.1,15.251,102.2,102.2,0,0,0,11.448.793c1.519,0,3.04.146,4.556.095q4.688-.159,9.372-.466a117.842,117.842,0,0,0,21.975-3.675,126.9,126.9,0,0,0,53.551-29.076,1.454,1.454,0,0,1,1.031-.492c1.854.015,3.709.007,5.564.013a.859.859,0,0,1,.249.085c-32.928,33.966-91.315,50.794-146.1,26.862-28.88-13.115-50.528-33.8-64.631-62.209a130.836,130.836,0,0,1-13.48-65.044" transform="translate(-7.91 -63.592)"/>
        <path id="Path_1198" data-name="Path 1198" class="cls-1" d="M434.519,110.738a5.166,5.166,0,0,1-.6-.362,5.25,5.25,0,0,1-.419-7.369,20.229,20.229,0,0,1,2.072-1.762c.2-.165.433-.294.731-.493-.387-.265-.681-.468-.976-.667a8.858,8.858,0,0,1-4.142-6.464,9.1,9.1,0,0,1,4.261-9.225,14.145,14.145,0,0,1,6.226-2.159,17.451,17.451,0,0,1,9.106,1.2,3.331,3.331,0,0,0,1.249.175c2.462.016,4.924.006,7.386.011.355,0,.71.04,1.143.066,0,1.283.047,2.491-.019,3.693a1.458,1.458,0,0,1-1.168,1.266c-.578.18-1.176.3-1.765.444l-1.2.3c.079.509.15.949.216,1.388a9.2,9.2,0,0,1-4.455,9.546,14.492,14.492,0,0,1-7.007,2.055c-1.148.053-2.305-.045-3.457-.1a1.58,1.58,0,0,0-1.5,1.081,1.181,1.181,0,0,0,.7,1.5,7.586,7.586,0,0,0,2.011.528c1.205.127,2.423.175,3.637.192a34.687,34.687,0,0,1,6.964.732c5.7,1.243,7.025,5.806,5.715,10.083a10.207,10.207,0,0,1-3.9,5.252,15.967,15.967,0,0,1-7.278,2.948,26.563,26.563,0,0,1-10.76-.484,13.171,13.171,0,0,1-4.836-2.264,6.3,6.3,0,0,1-2.613-6.05,4.68,4.68,0,0,1,1.849-3.235c.811-.624,1.72-1.119,2.831-1.827m9.75,7.965c1.375-.18,2.738-.283,4.065-.563a4.7,4.7,0,0,0,1.935-.937,2.252,2.252,0,0,0-.528-3.869,3.754,3.754,0,0,0-1.029-.346c-1.078-.15-2.16-.3-3.246-.363-1.723-.1-3.45-.139-5.176-.183a1.161,1.161,0,0,0-.76.171,7.675,7.675,0,0,0-1.484,1.686,2.472,2.472,0,0,0,1.161,3.464,3.853,3.853,0,0,0,1.106.4c1.312.205,2.633.361,3.957.537m-.249-30.354c0-.014,0-.028,0-.042-.363.018-.729.015-1.089.058a3.54,3.54,0,0,0-3.243,2.741,6.4,6.4,0,0,0-.168,1.259,3.894,3.894,0,0,0,2.908,4.191,6.268,6.268,0,0,0,3.585-.075,3.345,3.345,0,0,0,2.071-1.791,5.078,5.078,0,0,0,.433-2.922,3.583,3.583,0,0,0-3.5-3.416c-.331-.029-.666,0-1,0" transform="translate(-187.698 -35.849)"/>
        <path id="Path_1199" data-name="Path 1199" class="cls-1" d="M168.422,73.941V58.422a63.671,63.671,0,0,1,9.16-.049c.215.824.2,44.441-.031,45.216-.219.016-.455.049-.692.05-1.581,0-3.162.011-4.742,0a2.219,2.219,0,0,1-2.518-1.875c-.207-.651-.422-1.3-.684-2.1-.391.362-.654.6-.91.843a12.21,12.21,0,0,1-6.612,3.424c-4.556.72-8.292-.681-10.9-4.728A17.227,17.227,0,0,1,148,92.12a24.665,24.665,0,0,1,.3-9.238,15.348,15.348,0,0,1,4.249-7.817A12.193,12.193,0,0,1,164.278,72a9.488,9.488,0,0,1,3.183,1.537c.245.166.492.329.737.493l.224-.088M168.4,87.281c0-2.005-.015-4.01.01-6.015A1.526,1.526,0,0,0,167.845,80a6.486,6.486,0,0,0-4.89-1.573,4.83,4.83,0,0,0-4.1,2.491,9.471,9.471,0,0,0-.958,2.25,20.537,20.537,0,0,0-.265,8.849,8.16,8.16,0,0,0,1.109,3.062,3.863,3.863,0,0,0,3.05,1.906,7.034,7.034,0,0,0,6-2.251,2.016,2.016,0,0,0,.62-1.532c-.032-1.974-.012-3.949-.012-5.924" transform="translate(-64.509 -25.432)"/>
        <path id="Path_1200" data-name="Path 1200" class="cls-1" d="M176.293,266.146a11.024,11.024,0,0,1,5.522-1.234,4.024,4.024,0,0,1,3.424,2.236,2.008,2.008,0,0,0,.249.314,5.891,5.891,0,0,0,.553-.313c1.854-1.326,3.723-2.632,5.551-3.994,3.127-2.331,7.61-.621,8.534,2.08a1.9,1.9,0,0,0,.229.321c.242-.13.5-.255.74-.4.889-.525,1.743-1.119,2.67-1.564a6.561,6.561,0,0,1,2.166-.64,4.529,4.529,0,0,1,4.8,4.129c.042.545.034,1.094.083,1.639a2.946,2.946,0,0,0,.977,2.089c.439.373.9.719,1.361,1.07a10.23,10.23,0,0,1,2.258,2.1,5.31,5.31,0,0,0,2.036,1.5c1.458.749,2.926,1.479,4.366,2.26a21.067,21.067,0,0,0,7.316,2.385,2.449,2.449,0,0,0,2.617-.973,3.234,3.234,0,0,0,.7-3.373,5.356,5.356,0,0,0-2.081-2.562c-1.724-1.133-3.4-2.345-5.134-3.456a47.674,47.674,0,0,0-5.181-3.21c-2.054-.973-3.977-2.219-6.026-3.2a11.308,11.308,0,0,1-3.684-2.766c-.059-.066-.1-.145-.282-.4.355.2.549.289.723.408a39.564,39.564,0,0,0,6.966,3.758,52.153,52.153,0,0,1,7.582,3.959c1.822,1.152,3.719,2.187,5.58,3.279a4.828,4.828,0,0,1,.757.5,12.752,12.752,0,0,0,4.978,2.584,5.587,5.587,0,0,0,4.151-.54,2.072,2.072,0,0,0,1.2-2.258c-.084-.6-.118-1.209-.2-1.81a3.187,3.187,0,0,0-1.048-1.768c-1.3-1.317-2.569-2.667-3.876-3.977a25.2,25.2,0,0,0-2.331-2.167,64.061,64.061,0,0,0-9.178-5.732c-2.252-1.208-4.636-2.118-6.919-3.245a42.488,42.488,0,0,1-4.36-2.455,17.444,17.444,0,0,1-2.553-2.188,3.26,3.26,0,0,1-.713-1.237c-.26-.736-.425-1.505-.647-2.321.544-.039.747.263.962.594.4.61.807,1.212,1.24,1.8,1.141,1.54,2.861,2.323,4.43,3.283,1.031.631,2.18,1.067,3.261,1.621,1.243.637,2.467,1.309,3.7,1.96,1.529.807,3.064,1.6,4.591,2.415.375.2.741.417,1.1.648,2.089,1.357,4.19,2.7,6.251,4.1a7.412,7.412,0,0,1,1.5,1.444,15.564,15.564,0,0,0,2.408,2.458,7.986,7.986,0,0,1,2.613,3.1,3.118,3.118,0,0,0,3.128,1.625,2.35,2.35,0,0,0,1.935-1.343,6.724,6.724,0,0,0,.581-4.431,14.964,14.964,0,0,0-2.275-5.233c-1.373-2.043-2.768-4.071-4.147-6.112a17.953,17.953,0,0,0-5.129-4.862,55.262,55.262,0,0,0-8.414-4.341,14.306,14.306,0,0,1-1.366-.721q-3.676-2.107-7.346-4.227c-1.079-.621-2.173-1.217-3.229-1.875a3.259,3.259,0,0,1-.889-.9,2.576,2.576,0,0,0-3.089-.938,14.406,14.406,0,0,1-4.942.614,11.24,11.24,0,0,0-4.552.726,6.515,6.515,0,0,1-2.143.333,2.032,2.032,0,0,0-1.775,1.01,16.807,16.807,0,0,1-7.2,6.124,11.172,11.172,0,0,1-6.72.511,3.111,3.111,0,0,1-2.489-3.6,2.117,2.117,0,0,1,.461-.964c1.822-2.356,3.64-4.717,5.512-7.033a20.242,20.242,0,0,0,2.262-3.409c.182-.35.38-.693.584-1.031a4.245,4.245,0,0,1,2.679-2.047c1.031-.255,2.067-.493,3.1-.737.35-.082.7-.156,1.206-.268a3.4,3.4,0,0,0-.558-.454,4.418,4.418,0,0,0-3.551-.184,18.645,18.645,0,0,1-6.519,1.123A28.7,28.7,0,0,0,180.546,227c-1.9.529-3.812,1.021-5.741,1.423a22.333,22.333,0,0,1-3.173.288,3.449,3.449,0,0,1-.985-.132,22.057,22.057,0,0,1-4.35-1.606c-1.728-.82-3.484-1.578-5.227-2.367a1.659,1.659,0,0,1-.564-.4,4.988,4.988,0,0,1,3.1-.112c1.484.537,2.961,1.1,4.408,1.732a11.937,11.937,0,0,0,6.463,1.162,26.272,26.272,0,0,0,2.933-.631c1-.256,1.991-.55,2.972-.871a20.147,20.147,0,0,1,7.84-.792,10.063,10.063,0,0,0,4.034-.516,25.976,25.976,0,0,1,3.161-.84,6.417,6.417,0,0,1,4.315.775,2.786,2.786,0,0,0,2.278.232q3.286-1.083,6.553-2.223c.918-.32,1.821-.682,2.717-1.058a7.379,7.379,0,0,1,5.519-.027,14.88,14.88,0,0,0,4.626.856,76.065,76.065,0,0,1,11.412,1.177,38.606,38.606,0,0,1,10.076,3.346,13.841,13.841,0,0,0,4.816,1.279,5.53,5.53,0,0,0,3.887-1.024,9.369,9.369,0,0,1,5.22-1.649,11.9,11.9,0,0,1,2.348.188,4.585,4.585,0,0,1,1.049.431c-.078.66-.465.736-.921.754-.85.033-1.7.064-2.548.141a7.976,7.976,0,0,0-2.957.858,5.3,5.3,0,0,1-1.352.5,24.061,24.061,0,0,1-9.146.286,22.355,22.355,0,0,1-3.675-1.017,70.652,70.652,0,0,0-11.922-3.634,32,32,0,0,0-7.253-.612,6.236,6.236,0,0,1-2.335-.26c-.575-.193-1.174-.311-1.763-.459a10.2,10.2,0,0,0-6.343.576,61.318,61.318,0,0,1-7.8,2.481c-2.681.666-5.328,1.465-8,2.185a5.017,5.017,0,0,0-3.118,2.352c-.047.078-.1.151-.145.232a52.448,52.448,0,0,1-5.374,7.563c-.664.87-1.357,1.717-2.026,2.584a2.146,2.146,0,0,0,.386,3.272,3.95,3.95,0,0,0,2.82.8c.333-.024.664-.07,1-.1a6.258,6.258,0,0,0,2.979-1.023,41.27,41.27,0,0,0,6.5-5.565c.195-.192.392-.383.589-.572a4.668,4.668,0,0,1,3.288-1.718,7.635,7.635,0,0,0,2.043-.434,16.651,16.651,0,0,1,4.584-.6,28.846,28.846,0,0,0,3.612-.42c.66-.087,1.317-.2,1.975-.3a3.209,3.209,0,0,1,2.741.952c.582.533,1.129,1.107,1.678,1.675a8.813,8.813,0,0,0,2.694,1.839c.8.37,1.57.787,2.358,1.174q2.9,1.424,5.8,2.837c1.53.741,3.028,1.573,4.612,2.175,2.78,1.054,5.593,2.036,8.434,2.912a12.982,12.982,0,0,0,7.29.133c.5-.134,1.012-.2,1.517-.306a8.484,8.484,0,0,0,2.941-1.186,1.889,1.889,0,0,1,.745-.288c.611-.083.959.085,1.076.446a1.371,1.371,0,0,1-.54,1.432,2.757,2.757,0,0,1-.332.151,30.528,30.528,0,0,1-10.979,2.388c-.091,0-.182.008-.273,0a.878.878,0,0,0-.985.491,1.054,1.054,0,0,0,.266,1.163c1.163,1.4,2.376,2.771,3.422,4.257.923,1.31,1.661,2.752,2.452,4.152.328.58.563,1.212.873,1.8a3.493,3.493,0,0,0,4.675,1.553,6.585,6.585,0,0,0,2.417-1.881,16.266,16.266,0,0,0,2.671-4.74,2.063,2.063,0,0,1,.912-1.2,6.988,6.988,0,0,1,3.484-.673l.093.178c-.193.211-.38.425-.579.63-.5.514-1.219.828-1.439,1.6a.243.243,0,0,1-.127.124c-.961.437-1.319,1.373-1.864,2.172a13.629,13.629,0,0,1-2.055,2.543,29.306,29.306,0,0,1-3.781,2.833,9.847,9.847,0,0,1-2.61,1.026,1.291,1.291,0,0,0-1.01.907c-.171.518-.382,1.024-.6,1.527a5.8,5.8,0,0,1-4.062,3.494,2.118,2.118,0,0,0-1.46,1.1,5.481,5.481,0,0,1-.359.527,6.305,6.305,0,0,1-6.542,2.854c-.121-.017-.24-.042-.361-.058-1.041-.138-1.041-.137-1.508.826-1.343,2.771-3.668,4.24-6.462,3.989a26.426,26.426,0,0,1-2.857-.557c-.315-.064-.628-.142-.976-.221-.135.374-.248.651-.335.936a5.549,5.549,0,0,1-1.953,2.69,2.7,2.7,0,0,1-1.246.487,7.836,7.836,0,0,1-3.247-.285c-1.466-.395-2.921-.83-4.381-1.246-.344-.1-.691-.187-1.056-.285a3.126,3.126,0,0,0-.28.539,14.137,14.137,0,0,1-1.9,3.511,4.143,4.143,0,0,1-4.4,1.711,8.023,8.023,0,0,1-3.809-1.855,12.4,12.4,0,0,1-1.257-1.521c-.247.168-.488.335-.732.5-.732.49-1.434,1.035-2.2,1.456a5.04,5.04,0,0,1-5.055.083c-.8-.43-1.591-.887-2.369-1.36a3.831,3.831,0,0,1-1.718-1.827c-.041-.1-.154-.179-.3-.337-.43.194-.869.379-1.3.587a10.873,10.873,0,0,1-3.077,1.093,6.412,6.412,0,0,1-6.292-2.992,9.35,9.35,0,0,1-.644-1.969,6.481,6.481,0,0,1-.124-.877c-.457,0-.871-.026-1.281.005a6.816,6.816,0,0,1-4.574-1.477,6.07,6.07,0,0,1-2.375-5.082,17.38,17.38,0,0,1,.123-2.084c.035-.455.077-.909.141-1.36a1.592,1.592,0,0,0-.98-1.908c-1.186-.543-2.313-1.21-3.484-1.787a17.227,17.227,0,0,1-5.3-3.492c-.51-.551-.968-1.152-1.449-1.732l.113-.145a2.552,2.552,0,0,1,.513.221c1.184.851,2.4,1.659,3.529,2.584a22.923,22.923,0,0,0,7.071,3.888,6.666,6.666,0,0,0,5.148-.155,16.254,16.254,0,0,1,2.076-.638c-.96.457-1.894.977-2.884,1.346a8.1,8.1,0,0,1-2.209.438c-.958.071-1.374.34-1.566,1.29a13.229,13.229,0,0,0-.21,4.169,5.076,5.076,0,0,0,2.234,3.988c2.011,1.262,4.587,1.462,6.4-.928.274-.362.5-.76.765-1.13.193-.269.4-.526.622-.775.418-.479.854-.943,1.268-1.426.947-1.106,1.836-2.268,2.841-3.318,1.207-1.261,1.119-2.64-.355-3.565a5.308,5.308,0,0,0-4.457-.6c-.812.229-1.652.358-2.48.532m33.467,1.564a5.41,5.41,0,0,0-1.2-3.259,2.235,2.235,0,0,0-1.458-.856c-1.406-.17-2.8-.237-3.906.924a4.751,4.751,0,0,1-.812.584,8.878,8.878,0,0,0-2.333,2.277,9.862,9.862,0,0,1-2.284,2.333,10.32,10.32,0,0,0-1.421,1.4c-.864.934-1.695,1.9-2.562,2.828-.974,1.044-2.013,2.029-2.944,3.109a5.813,5.813,0,0,0-.957,1.736,7.4,7.4,0,0,0-.443,1.947c-.167,1.931.158,3.627,1.978,4.826a5.677,5.677,0,0,0,7.185-.587,14.8,14.8,0,0,0,2.269-3.061c1.924-3.719,4.786-6.779,7.042-10.259a12.7,12.7,0,0,1,.923-1.129,4.187,4.187,0,0,0,.918-2.812m-31.77,11.7c-.035,1.691.183,2.178,1.413,3.038a10.034,10.034,0,0,0,1.814,1.033,5.375,5.375,0,0,0,7.04-2.556c.286-.6.522-1.227.79-1.838.328-.749.636-1.51,1.012-2.235a4.282,4.282,0,0,1,.809-1.089c.6-.588,1.252-1.136,1.9-1.675,1.977-1.642,3.428-3.762,5.126-5.657a3.2,3.2,0,0,0,.11-3.976,3.96,3.96,0,0,0-4.015-1.59,6.706,6.706,0,0,0-2.073.88c-1.177.747-2.289,1.6-3.42,2.417a29.449,29.449,0,0,0-6.452,6.373c-.937,1.266-1.968,2.463-2.947,3.7a4.8,4.8,0,0,0-1.109,3.178m28.366,7.935a12.3,12.3,0,0,0,1.9-.528,5.64,5.64,0,0,0,2.263-2.058,14.4,14.4,0,0,0,2.067-5.014c.157-.678.252-1.374.449-2.04.316-1.069.686-2.122,1.047-3.177a1.732,1.732,0,0,0-.514-1.98,9.847,9.847,0,0,0-1.339-.927,2.288,2.288,0,0,0-2.72.144,6.486,6.486,0,0,0-1.958,2,33.25,33.25,0,0,1-3.455,4.789,9.474,9.474,0,0,0-2.2,5.479,2.076,2.076,0,0,0,.962,2.022,6.679,6.679,0,0,0,3.5,1.291m9.367-12.166a1.472,1.472,0,0,0-1.8,1.412c-.2,1.1-.506,2.188-.772,3.28a1.946,1.946,0,0,0,1.236,2.565c1.449.535,2.931.993,4.426,1.384a3.929,3.929,0,0,0,2.992-.475,1.658,1.658,0,0,0,.681-.579c.423-.863.776-1.76,1.178-2.7-2.786-1.555-5.8-2.6-7.943-4.89" transform="translate(-68.947 -96.303)"/>
        <path id="Path_1201" data-name="Path 1201" class="cls-1" d="M90.072,82.682h2.437c1.034,0,2.068-.014,3.1,0a2.152,2.152,0,0,1,2.342,1.745c.154.486.305.974.508,1.623.37-.285.657-.479.912-.707a12.353,12.353,0,0,1,13.273-2.069A10.015,10.015,0,0,1,118,90.787a19.656,19.656,0,0,1,.344,3.621c.034,6.172.016,12.344.016,18.516v1.124h-9.229c-.03-.376-.087-.754-.087-1.133q-.008-9.167-.006-18.334c0-.456,0-.913-.034-1.367a4.111,4.111,0,0,0-4.953-4.05,8.4,8.4,0,0,0-4.521,2.2,1.379,1.379,0,0,0-.329.7,3.217,3.217,0,0,0-.014.727q0,10.033,0,20.067c0,.385-.044.771-.07,1.2H90.06c-.044-.05-.065-.072-.083-.1a.219.219,0,0,1-.048-.075,1.856,1.856,0,0,1-.059-.356q-.005-15.1,0-30.191a1.892,1.892,0,0,1,.038-.36,1.662,1.662,0,0,1,.166-.3" transform="translate(-39.247 -35.9)"/>
        <path id="Path_1202" data-name="Path 1202" class="cls-1" d="M402.232,114.061h-9.209v-1.115q0-9.3-.006-18.606a10.178,10.178,0,0,0-.132-1.63c-.491-2.986-2.713-3.858-5.114-3.506a8.382,8.382,0,0,0-4.259,2.137,1.773,1.773,0,0,0-.4.86,2.833,2.833,0,0,0-.014.726q0,9.942,0,19.883v1.235h-9.078c-.2-.617-.28-29.9-.068-31.3.274-.019.568-.055.862-.056,1.52-.006,3.041-.008,4.56,0a2.253,2.253,0,0,1,2.59,1.91c.142.455.293.907.484,1.5.416-.349.738-.613,1.052-.886a11.444,11.444,0,0,1,5.931-2.815A11.182,11.182,0,0,1,397.813,84a9.925,9.925,0,0,1,4.013,6.207A18.1,18.1,0,0,1,402.259,94c.043,6.384.021,12.769.019,19.153,0,.27-.027.541-.046.91" transform="translate(-163.261 -35.905)"/>
        <path id="Path_1203" data-name="Path 1203" class="cls-1" d="M496.624,100.016a7.108,7.108,0,0,0,6.617,7.63,10.606,10.606,0,0,0,5.623-1.218,15.558,15.558,0,0,1,1.869-.941,5.079,5.079,0,0,1,1.849-.329,1.845,1.845,0,0,1,1.174.593c.967,1.088,1.855,2.244,2.807,3.416a6.951,6.951,0,0,1-.449.594,14.04,14.04,0,0,1-5.712,3.634,20.4,20.4,0,0,1-11.223.731c-6.131-1.343-9.865-5.249-11.385-11.247a17.945,17.945,0,0,1,.325-10.686,14.277,14.277,0,0,1,11.688-9.76,16.5,16.5,0,0,1,7.23.291c5.244,1.426,8.289,4.937,9.424,10.168a20.99,20.99,0,0,1,.192,5.631,1.361,1.361,0,0,1-1.3,1.394,9.757,9.757,0,0,1-1.452.1q-8.069.009-16.139,0Zm11.912-5.385c-.066-.623-.092-1.13-.179-1.627a4.982,4.982,0,0,0-4.276-4.351,9.626,9.626,0,0,0-2.8.079,4.716,4.716,0,0,0-3.6,2.638,20.181,20.181,0,0,0-.992,2.621,2.161,2.161,0,0,0-.009.639Z" transform="translate(-212.747 -35.884)"/>
        <path id="Path_1204" data-name="Path 1204" class="cls-1" d="M218.779,100.051a3.57,3.57,0,0,0,.007.737,20.382,20.382,0,0,0,.746,2.716,6.488,6.488,0,0,0,5.911,4.166,9.954,9.954,0,0,0,5.463-1.118c.623-.317,1.231-.667,1.868-.951a5.982,5.982,0,0,1,1.381-.437,1.76,1.76,0,0,1,1.69.478c1.014,1.162,1.97,2.376,2.979,3.606a13.352,13.352,0,0,1-3.22,2.761,17.265,17.265,0,0,1-7.38,2.431,19.916,19.916,0,0,1-8.038-.565c-5.634-1.747-8.943-5.655-10.254-11.29a18.522,18.522,0,0,1,.329-10.168,14.662,14.662,0,0,1,13.374-10.137,17.455,17.455,0,0,1,6.22.646c4.81,1.533,7.624,4.885,8.77,9.724a18.53,18.53,0,0,1,.359,5.258,4.4,4.4,0,0,1-.2,1.071,1.25,1.25,0,0,1-1.1.959,13.468,13.468,0,0,1-1.45.109q-8.164.012-16.326.005h-1.13m11.858-5.4c.217-3.391-1.8-5.592-4.3-5.972a9.11,9.11,0,0,0-1.907-.07,5.143,5.143,0,0,0-4.477,2.692,17.756,17.756,0,0,0-1.017,2.618,2.92,2.92,0,0,0-.053.733Z" transform="translate(-91.442 -35.919)"/>
        <path id="Path_1205" data-name="Path 1205" class="cls-1" d="M324.169,103.58h-9.141V58.423a55.887,55.887,0,0,1,9.141-.011Z" transform="translate(-137.582 -25.431)"/>
        <path id="Path_1206" data-name="Path 1206" class="cls-1" d="M280.087,113.959h-9.095c-.186-.7-.263-29.508-.081-31.281a6.521,6.521,0,0,1,.747-.084c1.581-.008,3.163-.012,4.744,0a5.8,5.8,0,0,1,1.081.136,1.576,1.576,0,0,1,1.315,1.238c.2.856.355,1.723.532,2.585.066.321.141.64.256,1.164.311-.391.516-.632.7-.887a13.746,13.746,0,0,1,3.705-3.6,7.629,7.629,0,0,1,5.942-1.034,3.437,3.437,0,0,1,.693.219c1,.461,1.007.555.817,1.5-.372,1.845-.661,3.707-.981,5.562-.213,1.243-.578,1.54-1.848,1.443-.787-.06-1.57-.206-2.356-.225-2.812-.07-4.687,1.413-5.979,3.758a2.675,2.675,0,0,0-.189,1.236q-.017,8.575-.008,17.15Z" transform="translate(-118.27 -35.807)"/>
        <path id="Path_1207" data-name="Path 1207" class="cls-1" d="M344.762,114.351V83.235a61.171,61.171,0,0,1,9.145-.064v31.138a67.32,67.32,0,0,1-9.145.043" transform="translate(-150.567 -36.262)"/>
        <path id="Path_1208" data-name="Path 1208" class="cls-1" d="M295.651,161.84v-.876q0-3.329,0-6.657c0-1.029.013-1.044,1-1.048,1.813-.006,1.59-.092,1.594,1.543q.01,5.381,0,10.762c0,.212,0,.426,0,.638-.021.766-.057.76-.85.824a2.239,2.239,0,0,1-2.174-.983c-1.721-2.28-3.527-4.5-5.3-6.735-.278-.35-.568-.692-.852-1.038l-.207.048a6.032,6.032,0,0,0-.085.729c0,2.249,0,4.5.008,6.749,0,.213-.006.426-.007.638,0,.361-.159.537-.541.584-1.94.238-2.062.139-2.062-1.8q0-5.381,0-10.762c0-.243,0-.486.011-.729a.45.45,0,0,1,.465-.46,2.549,2.549,0,0,1,2.625.979c1.769,2.394,3.672,4.69,5.525,7.023.182.229.388.438.583.657l.272-.091" transform="translate(-124.979 -66.925)"/>
        <path id="Path_1209" data-name="Path 1209" class="cls-1" d="M348.646,68.746a5.418,5.418,0,1,1,5.714-5.294,5.563,5.563,0,0,1-5.714,5.294" transform="translate(-149.863 -25.297)"/>
        <path id="Path_1210" data-name="Path 1210" class="cls-1" d="M317.557,160.187c0-2-.005-4.01,0-6.015,0-.84.055-.886.865-.9.455-.011.912-.015,1.367,0,.658.026.727.087.736.754.016,1.245,0,2.491.007,3.736,0,1.367,0,1.369,1.354,1.37,1.245,0,2.491.008,3.737,0,.847-.008.959-.1.977-.936.025-1.185.009-2.37.011-3.554,0-.243.006-.486.01-.729.006-.4.188-.631.606-.633.577,0,1.154,0,1.731,0,.377,0,.54.225.549.582.005.213.011.425.011.638q0,5.651,0,11.3c0,.212-.007.425-.009.638,0,.421-.227.594-.635.587-.486-.008-.972.011-1.458,0-.7-.02-.787-.091-.8-.8-.019-1.245-.005-2.491-.008-3.736,0-1.429-.015-1.441-1.4-1.444-1.246,0-2.491-.012-3.737.006-.837.012-.928.112-.936.968-.011,1.336,0,2.673-.005,4.009,0,.991-.01.991-1.035,1-.395,0-.79.01-1.185,0-.675-.021-.738-.071-.749-.729-.017-.972-.006-1.944-.006-2.916q0-1.6,0-3.19" transform="translate(-138.685 -66.932)"/>
        <path id="Path_1211" data-name="Path 1211" class="cls-1" d="M182.811,161.229c1.612,1.721,2.49,3.769,3.848,5.759a15.27,15.27,0,0,1-3.052-.024c-.314-.046-.652-.429-.843-.74-.73-1.191-1.418-2.409-2.094-3.633a1.443,1.443,0,0,0-1.339-.78c-.635-.018-.83.133-.851.779-.031.972-.016,1.945-.015,2.918,0,1.722.043,1.512-1.537,1.52-1.368.006-1.37,0-1.371-1.329q0-5.518,0-11.035c0-.122,0-.243,0-.364.019-.969.065-1.026,1.048-1.028,1.459,0,2.919-.017,4.377.033a7.257,7.257,0,0,1,1.784.314,3.486,3.486,0,0,1,2.713,3.183,3.937,3.937,0,0,1-1.766,3.853c-.27.185-.553.353-.9.575m-2.989-5.9c0,.017,0,.034-.006.052-.243,0-.486,0-.729,0a.538.538,0,0,0-.584.566q-.03,1.685-.006,3.371a.509.509,0,0,0,.587.549,11.074,11.074,0,0,0,1.891-.17,2.031,2.031,0,0,0,1.6-2.237A1.894,1.894,0,0,0,180.9,155.5c-.351-.085-.715-.117-1.074-.174" transform="translate(-76.671 -66.936)"/>
        <path id="Path_1212" data-name="Path 1212" class="cls-1" d="M389.361,154.736c-.256.4-.48.794-.745,1.156a.915.915,0,0,1-1.27.344c-.223-.1-.426-.233-.641-.347a5.238,5.238,0,0,0-3.554-.4,3.406,3.406,0,0,0-2.491,1.962,5.638,5.638,0,0,0,.14,5.422,4.273,4.273,0,0,0,5.431,1.624.8.8,0,0,0,.415-.528,3.1,3.1,0,0,0-.168-1.943c-.4-.019-.815-.044-1.234-.057a.569.569,0,0,1-.635-.611c0-.03,0-.06,0-.091-.026-1.5,0-1.35,1.227-1.35.942,0,1.885-.012,2.826.006.621.011.7.082.706.678.016,1.489-.007,2.979.012,4.467a.951.951,0,0,1-.6.923,9.053,9.053,0,0,1-5.911.958,6.358,6.358,0,0,1-5.628-5.23c-1.061-5.173,2.153-8.592,6.589-8.746a7.779,7.779,0,0,1,5.013,1.3c.168.121.311.274.52.462" transform="translate(-164.662 -66.803)"/>
        <path id="Path_1213" data-name="Path 1213" class="cls-1" d="M156.646,154.644c-.322.515-.529.882-.771,1.225a.884.884,0,0,1-1.253.364,8.1,8.1,0,0,1-.732-.368,5.14,5.14,0,0,0-3.378-.4,3.613,3.613,0,0,0-2.816,2.468,5.877,5.877,0,0,0,.057,4.357,4.3,4.3,0,0,0,5.638,2.263.675.675,0,0,0,.527-.66c0-.456.008-.912-.007-1.367a.523.523,0,0,0-.591-.545,1.463,1.463,0,0,1-.273-.01c-.344-.069-.923-.065-.982-.237a4.015,4.015,0,0,1-.1-1.507c.006-.11.314-.286.486-.289,1.185-.026,2.37-.014,3.555-.014.385,0,.542.213.542.576q0,2.371,0,4.741A.8.8,0,0,1,156,166a12.69,12.69,0,0,1-2.032.775,8.735,8.735,0,0,1-5.792-.407,7.035,7.035,0,0,1-3.838-7.487,6.7,6.7,0,0,1,6.94-5.93,8.411,8.411,0,0,1,3.809.729c.507.25.968.592,1.56.96" transform="translate(-63.002 -66.8)"/>
        <path id="Path_1214" data-name="Path 1214" class="cls-1" d="M215.628,167.018c-.881,0-1.605,0-2.33,0a.965.965,0,0,1-.924-.747c-.2-.541-.395-1.084-.556-1.637a.865.865,0,0,0-.973-.729c-1.4.034-2.794.03-4.19,0a.821.821,0,0,0-.917.68c-.127.437-.29.863-.44,1.293-.366,1.051-.483,1.142-1.558,1.143-.564,0-1.128-.024-1.786-.039.092-.342.133-.573.216-.787q2.313-5.985,4.636-11.966c.373-.96.381-.959,1.367-.966.486,0,.973.024,1.457-.006a.908.908,0,0,1,1.006.707c.581,1.564,1.2,3.112,1.806,4.668q1.446,3.734,2.885,7.471c.1.248.167.5.3.912m-4.808-5.156c-.628-2.053-1.239-3.927-1.93-5.772l-.252,0-1.942,5.7a12.5,12.5,0,0,0,4.124.073" transform="translate(-88.199 -66.931)"/>
        <path id="Path_1215" data-name="Path 1215" class="cls-1" d="M360.847,167.012c-.888,0-1.641.022-2.392-.008a1,1,0,0,1-.892-.8c-.2-.573-.4-1.148-.583-1.726a.735.735,0,0,0-.81-.568c-1.459.019-2.919.016-4.378,0a.73.73,0,0,0-.786.6c-.172.55-.387,1.087-.566,1.635a1.125,1.125,0,0,1-1.213.883c-.633-.021-1.268,0-1.909,0a1.525,1.525,0,0,1,.209-1.18q1.964-5.1,3.953-10.195c.22-.566.463-1.125.646-1.7a.886.886,0,0,1,1.021-.684c.485.025.973,0,1.459,0,.978.008.987.01,1.333.9q1.174,3.015,2.336,6.033,1.152,2.974,2.3,5.949c.085.222.143.455.27.866m-6.741-11.08a21.856,21.856,0,0,0-1.967,5.958,11.928,11.928,0,0,0,3.931-.113l-1.964-5.845" transform="translate(-151.658 -66.932)"/>
        <path id="Path_1216" data-name="Path 1216" class="cls-1" d="M261.535,160.078c0-1.946,0-3.892,0-5.837,0-.94.029-.969.98-.972q3.42-.01,6.84,0c.942,0,.962.034.969.982,0,.152.007.3,0,.456-.035.59-.1.678-.711.691-1.125.021-2.25.008-3.375.01-.3,0-.609-.011-.912.012-.684.051-.794.153-.815.823s-.021,1.338,0,2.006.129.795.813.821c.851.033,1.7.009,2.554.018.987.011,1.042.068,1.048,1.026,0,.122,0,.244,0,.365-.042.6-.106.684-.7.7-.79.019-1.581.005-2.371.006-.213,0-.426-.008-.638.006-.575.039-.674.121-.694.72-.025.729-.026,1.46,0,2.189.022.588.121.685.714.7,1.094.021,2.189.008,3.283.009.4,0,.791.009,1.186,0s.6.151.633.581c.139,1.575.091,1.641-1.49,1.641-2.128,0-4.257,0-6.385,0-.9,0-.916-.024-.919-.927-.006-2.006,0-4.013,0-6.02" transform="translate(-114.219 -66.935)"/>
        <path id="Path_1217" data-name="Path 1217" class="cls-1" d="M411.225,158.949c.472.055.824.124,1.178.133.851.019,1.7.012,2.553.01.44,0,.692.182.679.65,0,.03,0,.061,0,.091.086,1.287.029,1.35-1.237,1.351-.821,0-1.642-.014-2.462.009-.6.016-.684.1-.7.7q-.036,1.093,0,2.188c.02.629.1.71.779.718,1.368.016,2.736,0,4.1.008.909,0,.924.025.937.91.02,1.31.02,1.31-1.267,1.311q-3.283,0-6.566,0c-.943,0-.961-.019-.961-.979q-.006-5.881,0-11.763c0-.99.024-1.013,1.031-1.015q3.42-.008,6.84,0c.883,0,.912.047.924.935,0,.091,0,.182,0,.273-.014.873-.049.918-.941.925-1.276.011-2.553-.005-3.83.008-.979.01-1.048.083-1.056,1.029-.008.814,0,1.627,0,2.508" transform="translate(-178.297 -66.935)"/>
        <path id="Path_1218" data-name="Path 1218" class="cls-1" d="M229.019,153.292c1,0,1.781-.025,2.561.01.541.024.733.456.895.906.581,1.628,1.181,3.251,1.762,4.88.459,1.286.9,2.579,1.354,3.866.066.187.175.359.333.678.143-.3.241-.467.3-.646q1.552-4.421,3.1-8.846a1.141,1.141,0,0,1,1.222-.874c.688.026,1.378.006,2.184.006-.136.416-.212.7-.321.974q-2.364,5.919-4.737,11.833c-.38.947-.382.962-1.377.947-2.141-.033-1.641.33-2.445-1.646-1.488-3.653-2.944-7.319-4.412-10.981-.121-.3-.229-.6-.417-1.105" transform="translate(-100.019 -66.934)"/>
        <path id="Path_1219" data-name="Path 1219" class="cls-1" d="M102.143,165.243c.252-.414.464-.817.727-1.183.4-.56.7-.621,1.319-.259a5.033,5.033,0,0,0,2.162.9,4.523,4.523,0,0,0,1.345-.1,1.491,1.491,0,0,0,1.139-1.383,1.387,1.387,0,0,0-.705-1.469,10.966,10.966,0,0,0-1.587-.666c-.568-.21-1.154-.372-1.722-.579-2.821-1.027-2.905-5.043-.724-6.573a5.154,5.154,0,0,1,1.711-.8,6.484,6.484,0,0,1,4.92.7,5.532,5.532,0,0,1,.581.45,3.746,3.746,0,0,1-.183.542c-.62,1.176-.652,1.7-2.233.818a4.578,4.578,0,0,0-1.835-.4,1.839,1.839,0,0,0-1.02.315,1.319,1.319,0,0,0-.087,2.273,5.888,5.888,0,0,0,1.306.622c.621.241,1.262.431,1.889.658a3.363,3.363,0,0,1,2.482,3.154,4.282,4.282,0,0,1-1.768,3.888,5.123,5.123,0,0,1-2.823.9,7.454,7.454,0,0,1-4.314-1.217,2.556,2.556,0,0,1-.361-.275,2.1,2.1,0,0,1-.218-.316" transform="translate(-44.609 -66.788)"/>
        <path id="Path_1220" data-name="Path 1220" class="cls-1" d="M89.582,156.767c.133-.221.227-.409.35-.575a2.64,2.64,0,0,0,.266-2.825c-.368-.835-.332-.922.515-1.242.363-.137.739-.241,1.154-.375a3.506,3.506,0,0,1,.5,3.369,5.4,5.4,0,0,1-1.026,1.681c-.666.794-.831.764-1.755-.033" transform="translate(-39.123 -66.273)"/>
        <path id="Path_1221" data-name="Path 1221" class="cls-1" d="M129.885,165.644c.545,0,1.091-.014,1.636,0,.633.021.705.107.745.758,0,.06,0,.121,0,.182.017,1.051-.058,1.132-1.114,1.138-.97.005-1.939.011-2.909,0-.78-.011-.833-.075-.86-.82-.006-.152-.005-.3,0-.455.025-.729.071-.785.772-.8.576-.014,1.151,0,1.727,0" transform="translate(-55.631 -72.339)"/>
      </g>
    </g>
  </g>
</svg>
